<svg width="138" height="138" viewBox="0 0 138 138" fill="none" xmlns="http://www.w3.org/2000/svg">
<g filter="url(#filter0_d_1_382)">
<rect x="24" y="18" width="90" height="90" rx="10" fill="#E7F1FB"/>
</g>
<path d="M90.3284 54.3605C90.4791 47.9743 85.4074 42.5623 79.0197 42.4929C74.743 42.4464 71.0019 44.7485 69.0003 48.1879C66.9984 44.7485 63.2577 42.446 58.981 42.4929C52.5933 42.5623 47.5216 47.9743 47.6723 54.3605C48.0095 68.6309 65.0773 81.0432 68.4316 83.3469C68.7745 83.5827 69.2262 83.5827 69.5691 83.3469C72.9234 81.0432 89.9912 68.6309 90.3284 54.3605Z" fill="#FF5C5C"/>
<path d="M90.3339 53.9336C90.3339 68.381 72.9609 81.0169 69.5693 83.3462C69.2259 83.5819 68.7739 83.5831 68.4302 83.3473C67.5948 82.7736 65.9083 81.5727 63.8419 79.8725C67.248 77.5318 84.5973 64.9032 84.5973 50.4645C84.5973 47.5317 83.4953 44.8561 81.681 42.8339C86.6523 44.0787 90.3339 48.5743 90.3339 53.9336Z" fill="#FF3838"/>
<path d="M68.8582 74.8802C68.2379 74.8802 67.705 74.4388 67.5898 73.8284L64.4381 57.0868L61.0846 65.0565C60.8893 65.5208 60.4422 65.8286 59.939 65.8458C59.4351 65.8629 58.9685 65.5856 58.7423 65.1359L57.8459 63.354H45.2905C44.5779 63.354 44 62.7761 44 62.0635C44 61.3505 44.5779 60.773 45.2905 60.773H58.6412C59.1265 60.773 59.5705 61.045 59.7906 61.4768L63.7232 52.1319C63.9441 51.6066 64.4835 51.2885 65.0492 51.3491C65.6157 51.4094 66.0754 51.8336 66.181 52.3936L68.7796 66.1986L69.855 59.7392C69.9584 59.1166 70.4966 58.6604 71.1276 58.6604H75.3394C75.7758 58.6604 76.1828 58.8809 76.4209 59.2463L78.3984 62.2817L79.2514 61.2441C79.4967 60.9458 79.8625 60.773 80.2485 60.773H92.7097C93.4223 60.773 93.9998 61.3509 93.9998 62.0635C93.9998 62.7761 93.4223 63.354 92.7097 63.354H80.8585L79.2754 65.2801C79.0145 65.5974 78.6174 65.7718 78.2073 65.7493C77.7964 65.7268 77.4215 65.5097 77.1972 65.1652L74.6405 61.2414H72.2212L70.1312 73.8014C70.0285 74.4186 69.4975 74.8733 68.8719 74.8798C68.8673 74.8798 68.8624 74.8802 68.8582 74.8802Z" fill="#E7F1FB"/>
<defs>
<filter id="filter0_d_1_382" x="0" y="0" width="138" height="138" filterUnits="userSpaceOnUse" color-interpolation-filters="sRGB">
<feFlood flood-opacity="0" result="BackgroundImageFix"/>
<feColorMatrix in="SourceAlpha" type="matrix" values="0 0 0 0 0 0 0 0 0 0 0 0 0 0 0 0 0 0 127 0" result="hardAlpha"/>
<feOffset dy="6"/>
<feGaussianBlur stdDeviation="12"/>
<feColorMatrix type="matrix" values="0 0 0 0 0.0705882 0 0 0 0 0.482353 0 0 0 0 0.854902 0 0 0 0.06 0"/>
<feBlend mode="normal" in2="BackgroundImageFix" result="effect1_dropShadow_1_382"/>
<feBlend mode="normal" in="SourceGraphic" in2="effect1_dropShadow_1_382" result="shape"/>
</filter>
</defs>
</svg>
