<svg width="138" height="138" viewBox="0 0 138 138" fill="none" xmlns="http://www.w3.org/2000/svg">
<g filter="url(#filter0_d_1_298)">
<rect x="24" y="18" width="90" height="90" rx="10" fill="#E7F1FB"/>
</g>
<g clip-path="url(#clip0_1_298)">
<path d="M74.3613 71.2199L77.2125 68.3687L83.1652 74.3215L80.314 77.1727L74.3613 71.2199Z" fill="#8E99A3"/>
<path d="M63.3638 76.7275C74.0581 76.7275 82.7275 68.0581 82.7275 57.3638C82.7275 46.6695 74.0581 38 63.3638 38C52.6695 38 44 46.6695 44 57.3638C44 68.0581 52.6695 76.7275 63.3638 76.7275Z" fill="#ACD7FE"/>
<path d="M63.3636 72.7202C71.8447 72.7202 78.7201 65.8449 78.7201 57.3638C78.7201 48.8826 71.8447 42.0073 63.3636 42.0073C54.8825 42.0073 48.0072 48.8826 48.0072 57.3638C48.0072 65.8449 54.8825 72.7202 63.3636 72.7202Z" fill="#F2F9FF"/>
<path d="M52.5057 46.5052C51.7247 47.2862 51.0464 48.1309 50.4688 49.0218C56.419 45.1644 64.4535 45.8427 69.6695 51.0587C74.8855 56.2747 75.5638 64.3092 71.7064 70.2594C72.5973 69.6819 73.442 69.0035 74.223 68.2225C80.2201 62.2254 80.2201 52.5023 74.223 46.5052C68.2259 40.5081 58.5028 40.5081 52.5057 46.5052Z" fill="#E2F4FF"/>
<path d="M72.3074 58.294C72.1907 58.294 72.0722 58.2668 71.9613 58.2094L70.6075 57.5088C70.2374 57.3172 70.0927 56.862 70.2843 56.4919C70.4759 56.1219 70.9312 55.9772 71.3012 56.1686L72.6549 56.8692C73.025 57.0608 73.1698 57.5161 72.9782 57.8861C72.8441 58.1453 72.5805 58.294 72.3074 58.294Z" fill="#5BA121"/>
<path d="M69.7441 61.1862C69.5436 61.1862 69.3435 61.1067 69.1951 60.9494L68.1286 59.8187C67.8426 59.5155 67.8566 59.038 68.1597 58.752C68.4629 58.4662 68.9404 58.4803 69.2263 58.7832L70.2928 59.9139C70.5787 60.2171 70.5648 60.6946 70.2617 60.9806C70.116 61.118 69.9298 61.1862 69.7441 61.1862Z" fill="#5BA121"/>
<path d="M66.525 63.4597C66.2737 63.4597 66.028 63.3342 65.8849 63.1056L65.1226 61.8886C64.9014 61.5354 65.0083 61.0698 65.3614 60.8486C65.7146 60.6273 66.1802 60.7344 66.4014 61.0875L67.1637 62.3045C67.3849 62.6576 67.2779 63.1232 66.9248 63.3444C66.8004 63.4225 66.6618 63.4597 66.525 63.4597Z" fill="#5BA121"/>
<path d="M62.9234 65.0812C62.609 65.0812 62.3156 64.8831 62.209 64.5688L61.7722 63.2807C61.6383 62.8861 61.8497 62.4576 62.2444 62.3238C62.6392 62.1902 63.0676 62.4014 63.2013 62.7961L63.6381 64.0842C63.772 64.4787 63.5605 64.9072 63.1658 65.041C63.0855 65.0682 63.0038 65.0812 62.9234 65.0812Z" fill="#5BA121"/>
<path d="M58.7416 65.6793C58.7255 65.6793 58.7095 65.6788 58.6933 65.6778C58.2774 65.6516 57.9616 65.2932 57.9878 64.8773L58.0896 63.2628C58.116 62.8468 58.476 62.5318 58.8902 62.5572C59.3061 62.5835 59.6219 62.9419 59.5958 63.3577L59.4939 64.9723C59.4686 65.372 59.1365 65.6793 58.7416 65.6793Z" fill="#5BA121"/>
<path d="M67.3549 51.5556C67.0458 51.5556 66.7558 51.3641 66.645 51.0565L66.0611 49.4357C65.9199 49.0436 66.1232 48.6113 66.5152 48.4702C66.9075 48.3287 67.3396 48.5323 67.4808 48.9243L68.0647 50.5451C68.2059 50.9372 68.0026 51.3695 67.6106 51.5106C67.5262 51.5411 67.4398 51.5556 67.3549 51.5556Z" fill="#5BA121"/>
<path d="M64.6518 53.303C64.4469 53.303 64.2427 53.22 64.0938 53.0566L62.903 51.7494C62.6223 51.4413 62.6446 50.9642 62.9527 50.6836C63.2607 50.4028 63.738 50.4251 64.0186 50.7332L65.2094 52.0404C65.4901 52.3485 65.4678 52.8257 65.1597 53.1063C65.0152 53.2381 64.8333 53.303 64.6518 53.303Z" fill="#5BA121"/>
<path d="M60.0964 54.2317C59.7426 54.2317 59.4267 53.9817 59.3566 53.6213L59.0388 51.9895C58.9592 51.5806 59.2262 51.1845 59.6351 51.1048C60.044 51.0246 60.4403 51.292 60.52 51.7012L60.8379 53.3329C60.9175 53.7419 60.6505 54.138 60.2415 54.2177C60.1927 54.2272 60.1441 54.2317 60.0964 54.2317Z" fill="#5BA121"/>
<path d="M56.9844 54.823C56.7119 54.823 56.4488 54.6749 56.3144 54.4164L55.6529 53.1444C55.4606 52.7747 55.6044 52.3192 55.9742 52.1268C56.3439 51.9348 56.7995 52.0783 56.9917 52.4481L57.6533 53.72C57.8455 54.0898 57.7017 54.5453 57.332 54.7377C57.2206 54.7954 57.1016 54.823 56.9844 54.823Z" fill="#5BA121"/>
<path d="M54.745 57.5107C54.6498 57.5107 54.553 57.4925 54.4594 57.4543L52.895 56.8138C52.5094 56.6559 52.3247 56.2153 52.4826 55.8297C52.6405 55.4441 53.0809 55.2595 53.4668 55.4174L55.0311 56.0579C55.4168 56.2158 55.6015 56.6564 55.4436 57.0419C55.324 57.3339 55.0423 57.5107 54.745 57.5107Z" fill="#5BA121"/>
<path d="M69.7151 51.9991C69.5816 51.9991 69.4465 51.9638 69.3241 51.8894C68.9679 51.6731 68.8545 51.2089 69.0708 50.8527L69.9187 49.4567C70.135 49.1006 70.5991 48.9871 70.9553 49.2035C71.3115 49.4198 71.4248 49.884 71.2085 50.2401L70.3607 51.6361C70.2187 51.8699 69.97 51.9991 69.7151 51.9991Z" fill="#5BA121"/>
<path d="M71.5294 54.3907C71.1649 54.3907 70.8441 54.1259 70.7852 53.7544C70.7199 53.3428 71.0006 52.9563 71.4122 52.8909L72.8796 52.6581C73.2909 52.5926 73.6778 52.8734 73.7431 53.2851C73.8085 53.6967 73.5277 54.0832 73.1162 54.1485L71.6487 54.3813C71.6085 54.3877 71.5687 54.3907 71.5294 54.3907Z" fill="#5BA121"/>
<path d="M53.1074 61.0657C52.8069 61.0657 52.5229 60.8851 52.4056 60.5887C52.2523 60.2012 52.4421 59.7628 52.8296 59.6095L54.3696 59.0001C54.757 58.8467 55.1955 59.0364 55.3488 59.424C55.5021 59.8115 55.3124 60.2499 54.9249 60.4032L53.3848 61.0126C53.2937 61.0486 53.1998 61.0657 53.1074 61.0657Z" fill="#5BA121"/>
<path d="M55.3293 64.2374C55.1777 64.2374 55.0247 64.1918 54.8919 64.0971C54.5526 63.8551 54.4737 63.384 54.7156 63.0446L55.647 61.7385C55.8889 61.3992 56.3601 61.3202 56.6995 61.5622C57.0387 61.8042 57.1176 62.2753 56.8758 62.6146L55.9443 63.9208C55.7969 64.1272 55.5649 64.2374 55.3293 64.2374Z" fill="#5BA121"/>
<path d="M61.0303 49.047C62.1491 49.047 63.0561 48.1401 63.0561 47.0213C63.0561 45.9025 62.1491 44.9955 61.0303 44.9955C59.9115 44.9955 59.0045 45.9025 59.0045 47.0213C59.0045 48.1401 59.9115 49.047 61.0303 49.047Z" fill="#127BDA"/>
<path d="M73.6111 63.194C74.4611 63.194 75.1502 62.5049 75.1502 61.6549C75.1502 60.8048 74.4611 60.1157 73.6111 60.1157C72.761 60.1157 72.0719 60.8048 72.0719 61.6549C72.0719 62.5049 72.761 63.194 73.6111 63.194Z" fill="#CCF49F"/>
<path d="M66.1998 72.4568C66.1997 70.1694 64.3453 68.3152 62.0579 68.3152C60.0123 68.3152 58.3143 69.7984 57.9778 71.748C60.612 72.7325 63.4619 72.9686 66.1998 72.4568Z" fill="#B1E4F9"/>
<path d="M60.0839 63.5176C57.832 63.5176 55.9904 62.5582 55.0315 60.8853C53.7319 58.6184 54.4036 55.6875 56.5606 54.2128C57.407 53.6342 58.3921 53.3284 59.4096 53.3284C60.0127 53.3284 60.6058 53.4348 61.1722 53.6446C61.6681 53.8283 62.0731 53.9507 62.4375 53.9507C62.8432 53.9507 63.1821 53.7981 63.536 53.4561C64.4912 52.5328 65.6325 51.533 65.6386 51.5281C66.391 50.9312 67.1817 50.6288 67.9886 50.6288C68.8773 50.6288 69.7348 51.0016 70.4686 51.7069C71.4302 52.6312 71.8609 53.769 71.7141 54.997C71.6046 55.9135 71.1592 56.8845 70.5228 57.5946C66.9615 61.5676 63.3945 62.8703 62.3861 63.1749C61.6328 63.4024 60.8583 63.5177 60.0843 63.5177C60.084 63.5177 60.084 63.5176 60.0839 63.5176Z" fill="#5BA121"/>
<path d="M59.7014 60.3933C60.7723 60.3933 61.6405 59.5251 61.6405 58.4542C61.6405 57.3832 60.7723 56.515 59.7014 56.515C58.6304 56.515 57.7622 57.3832 57.7622 58.4542C57.7622 59.5251 58.6304 60.3933 59.7014 60.3933Z" fill="#E9F5EB"/>
<path d="M67.3551 56.5342C68.1554 56.5342 68.8042 55.8854 68.8042 55.0851C68.8042 54.2848 68.1554 53.636 67.3551 53.636C66.5548 53.636 65.906 54.2848 65.906 55.0851C65.906 55.8854 66.5548 56.5342 67.3551 56.5342Z" fill="#E9F5EB"/>
<path d="M84.1728 72.6361C83.3543 71.8176 82.0275 71.8176 81.209 72.6361L78.6365 75.2085C77.8181 76.027 77.8181 77.3538 78.6365 78.1723L80.1336 79.6694L81.1174 79.9358L85.9363 75.1169L85.6699 74.1331L84.1728 72.6361Z" fill="#127BDA"/>
<path d="M87.8491 87.3861C88.6675 88.2046 89.9945 88.2046 90.8128 87.3861L93.3853 84.8137C94.2037 83.9952 94.2037 82.6684 93.3853 81.8499L85.6685 74.1331L80.1323 79.6693L87.8491 87.3861Z" fill="#127BDA"/>
</g>
<defs>
<filter id="filter0_d_1_298" x="0" y="0" width="138" height="138" filterUnits="userSpaceOnUse" color-interpolation-filters="sRGB">
<feFlood flood-opacity="0" result="BackgroundImageFix"/>
<feColorMatrix in="SourceAlpha" type="matrix" values="0 0 0 0 0 0 0 0 0 0 0 0 0 0 0 0 0 0 127 0" result="hardAlpha"/>
<feOffset dy="6"/>
<feGaussianBlur stdDeviation="12"/>
<feColorMatrix type="matrix" values="0 0 0 0 0.0705882 0 0 0 0 0.482353 0 0 0 0 0.854902 0 0 0 0.06 0"/>
<feBlend mode="normal" in2="BackgroundImageFix" result="effect1_dropShadow_1_298"/>
<feBlend mode="normal" in="SourceGraphic" in2="effect1_dropShadow_1_298" result="shape"/>
</filter>
<clipPath id="clip0_1_298">
<rect width="50" height="50" fill="white" transform="translate(44 38)"/>
</clipPath>
</defs>
</svg>
