<svg width="26" height="21" viewBox="0 0 26 21" fill="none" xmlns="http://www.w3.org/2000/svg">
<path d="M24.7305 0.476562V1.94363C22.6547 2.70211 21.0279 3.89972 19.8503 5.53645C18.6727 7.15319 18.0839 8.83984 18.0839 10.5963C18.0839 10.9756 18.1437 11.255 18.2635 11.4346C18.3433 11.5544 18.4331 11.6143 18.533 11.6143C18.6327 11.6143 18.7824 11.5445 18.982 11.4047C19.6207 10.9456 20.4292 10.7161 21.4072 10.7161C22.5449 10.7161 23.5529 11.1851 24.4311 12.1233C25.3094 13.0414 25.7485 14.1392 25.7485 15.4167C25.7485 16.754 25.2395 17.9317 24.2216 18.9496C23.2236 19.9676 22.006 20.4766 20.5689 20.4766C18.8922 20.4766 17.4451 19.7879 16.2276 18.4107C15.01 17.0335 14.4012 15.1871 14.4012 12.8718C14.4012 10.1772 15.2295 7.76198 16.8862 5.62626C18.5429 3.49054 21.1577 1.77397 24.7305 0.476562ZM10.3293 0.476562V1.94363C8.25348 2.70211 6.62674 3.89972 5.44911 5.53645C4.27147 7.15319 3.68264 8.83984 3.68264 10.5963C3.68264 10.9756 3.74252 11.255 3.86227 11.4346C3.94212 11.5544 4.03195 11.6143 4.13172 11.6143C4.23153 11.6143 4.38125 11.5445 4.58083 11.4047C5.21955 10.9456 6.02796 10.7161 7.00597 10.7161C8.14371 10.7161 9.1517 11.1851 10.0299 12.1233C10.9082 13.0414 11.3473 14.1392 11.3473 15.4167C11.3473 16.754 10.8383 17.9317 9.82036 18.9496C8.82237 19.9676 7.6048 20.4766 6.16767 20.4766C4.49102 20.4766 3.04391 19.7879 1.82635 18.4107C0.608783 17.0335 0 15.1871 0 12.8718C0 10.1772 0.828342 7.76198 2.48503 5.62626C4.14173 3.49054 6.75649 1.77397 10.3293 0.476562Z" fill="#E7F1FB"/>
</svg>
