<svg width="62" height="48" viewBox="0 0 62 48" fill="none" xmlns="http://www.w3.org/2000/svg">
<path d="M58.7734 0.476562V3.92188C53.8984 5.70312 50.0781 8.51562 47.3125 12.3594C44.5469 16.1562 43.1641 20.1172 43.1641 24.2422C43.1641 25.1328 43.3047 25.7891 43.5859 26.2109C43.7734 26.4922 43.9844 26.6328 44.2188 26.6328C44.4531 26.6328 44.8047 26.4688 45.2734 26.1406C46.7734 25.0625 48.6719 24.5234 50.9688 24.5234C53.6406 24.5234 56.0078 25.625 58.0703 27.8281C60.1328 29.9844 61.1641 32.5625 61.1641 35.5625C61.1641 38.7031 59.9688 41.4688 57.5781 43.8594C55.2344 46.25 52.375 47.4453 49 47.4453C45.0625 47.4453 41.6641 45.8281 38.8047 42.5938C35.9453 39.3594 34.5156 35.0234 34.5156 29.5859C34.5156 23.2578 36.4609 17.5859 40.3516 12.5703C44.2422 7.55469 50.3828 3.52344 58.7734 0.476562ZM24.9531 0.476562V3.92188C20.0781 5.70312 16.2578 8.51562 13.4922 12.3594C10.7266 16.1562 9.34375 20.1172 9.34375 24.2422C9.34375 25.1328 9.48438 25.7891 9.76562 26.2109C9.95312 26.4922 10.1641 26.6328 10.3984 26.6328C10.6328 26.6328 10.9844 26.4688 11.4531 26.1406C12.9531 25.0625 14.8516 24.5234 17.1484 24.5234C19.8203 24.5234 22.1875 25.625 24.25 27.8281C26.3125 29.9844 27.3438 32.5625 27.3438 35.5625C27.3438 38.7031 26.1484 41.4688 23.7578 43.8594C21.4141 46.25 18.5547 47.4453 15.1797 47.4453C11.2422 47.4453 7.84375 45.8281 4.98438 42.5938C2.125 39.3594 0.695312 35.0234 0.695312 29.5859C0.695312 23.2578 2.64062 17.5859 6.53125 12.5703C10.4219 7.55469 16.5625 3.52344 24.9531 0.476562Z" fill="#E7F1FB"/>
</svg>
